<svg xmlns="http://www.w3.org/2000/svg" width="800" height="800" viewBox="0 0 800 800" role="img" aria-label="GALERÍA 5">
  <defs>
    <linearGradient id="g478gpc" x1="0" y1="0" x2="1" y2="1">
      <stop offset="0" stop-color="#A8442A"/>
      <stop offset="1" stop-color="#4A5340"/>
    </linearGradient>
    <pattern id="d478gpc" width="22" height="22" patternUnits="userSpaceOnUse">
      <circle cx="2" cy="2" r="1.4" fill="#F6EFE3" opacity="0.07"/>
    </pattern>
  </defs>
  <rect width="800" height="800" fill="url(#g478gpc)"/>
  <rect width="800" height="800" fill="url(#d478gpc)"/>
  <g transform="translate(400 332.8) scale(1.66)" fill="none" stroke="#F6EFE3" stroke-opacity="0.85" stroke-width="2" stroke-linecap="round" stroke-linejoin="round">
    <path d="M-23 -8 h8 l3 -5 h12 l3 5 h8 a3 3 0 0 1 3 3 v20 a3 3 0 0 1 -3 3 h-34 a3 3 0 0 1 -3 -3 v-20 a3 3 0 0 1 3 -3 z" transform="translate(0 -2)"/>
    <circle cx="0" cy="6" r="8"/>
  </g>
  <text x="400" y="458.8" font-family="Georgia, 'Times New Roman', serif" font-size="42" font-weight="600" fill="#F6EFE3" text-anchor="middle" letter-spacing="0.5">GALERÍA 5</text>
  <text x="400" y="509.2" font-family="Inter, system-ui, sans-serif" font-size="21" fill="#F6EFE3" fill-opacity="0.6" text-anchor="middle" letter-spacing="2">REEMPLAZAR POR FOTO REAL</text>
  <rect x="6" y="6" width="788" height="788" fill="none" stroke="#C8893B" stroke-opacity="0.5" stroke-width="2" rx="6"/>
</svg>