<svg xmlns="http://www.w3.org/2000/svg" width="1200" height="1500" viewBox="0 0 1200 1500" role="img" aria-label="NOSOTROS — cocina / mesa servida">
  <defs>
    <linearGradient id="g1f184a" x1="0" y1="0" x2="1" y2="1">
      <stop offset="0" stop-color="#4A5340"/>
      <stop offset="1" stop-color="#2B1D16"/>
    </linearGradient>
    <pattern id="d1f184a" width="22" height="22" patternUnits="userSpaceOnUse">
      <circle cx="2" cy="2" r="1.4" fill="#F6EFE3" opacity="0.07"/>
    </pattern>
  </defs>
  <rect width="1200" height="1500" fill="url(#g1f184a)"/>
  <rect width="1200" height="1500" fill="url(#d1f184a)"/>
  <g transform="translate(600 654) scale(2.1399999999999997)" fill="none" stroke="#F6EFE3" stroke-opacity="0.85" stroke-width="2" stroke-linecap="round" stroke-linejoin="round">
    <path d="M-23 -8 h8 l3 -5 h12 l3 5 h8 a3 3 0 0 1 3 3 v20 a3 3 0 0 1 -3 3 h-34 a3 3 0 0 1 -3 -3 v-20 a3 3 0 0 1 3 -3 z" transform="translate(0 -2)"/>
    <circle cx="0" cy="6" r="8"/>
  </g>
  <text x="600" y="834" font-family="Georgia, 'Times New Roman', serif" font-size="60" font-weight="600" fill="#F6EFE3" text-anchor="middle" letter-spacing="0.5">NOSOTROS — cocina / mesa servida</text>
  <text x="600" y="906" font-family="Inter, system-ui, sans-serif" font-size="30" fill="#F6EFE3" fill-opacity="0.6" text-anchor="middle" letter-spacing="2">REEMPLAZAR POR FOTO REAL</text>
  <rect x="6" y="6" width="1188" height="1488" fill="none" stroke="#C8893B" stroke-opacity="0.5" stroke-width="2" rx="6"/>
</svg>